<svg width="50" height="50" viewBox="0 0 50 50" fill="none" xmlns="http://www.w3.org/2000/svg">
<rect x="38" y="17" width="8" height="2" transform="rotate(180 38 17)" fill="#C4C4C4"/>
<rect x="32" y="15" width="8" height="2" transform="rotate(90 32 15)" fill="#C4C4C4"/>
<path d="M31.8193 16.3688C33.8594 17.9807 35.2627 20.2631 35.78 22.8112C36.2974 25.3593 35.8955 28.0082 34.6455 30.2881C33.3956 32.568 31.3784 34.3314 28.952 35.2656C26.5255 36.1997 23.8466 36.2441 21.3905 35.3909C18.9344 34.5378 16.8599 32.8422 15.5351 30.6049C14.2102 28.3677 13.7207 25.7336 14.1533 23.1697C14.586 20.6059 15.9128 18.2782 17.8983 16.5996C19.8839 14.921 22.3999 14 25 14" stroke="#C4C4C4" stroke-width="2"/>
</svg>
